<?xml version=”1.0″?>
<svg
	xmlns="http://www.w3.org/2000/svg" style="display: none;">
	<symbol id="menu" viewBox="0 -53 384 384">
		<title>menu</title>
		<path d="m368 154.667969h-352c-8.832031 0-16-7.167969-16-16s7.167969-16 16-16h352c8.832031 0 16 7.167969 16 16s-7.167969 16-16 16zm0 0"/>
		<path d="m368 32h-352c-8.832031 0-16-7.167969-16-16s7.167969-16 16-16h352c8.832031 0 16 7.167969 16 16s-7.167969 16-16 16zm0 0"/>
		<path d="m368 277.332031h-352c-8.832031 0-16-7.167969-16-16s7.167969-16 16-16h352c8.832031 0 16 7.167969 16 16s-7.167969 16-16 16zm0 0"/>
	</symbol>
	<symbol id="cross-sign" viewBox="0 0 123.05 123.05">
		<title>cross-sign</title>
		<path d="M121.325,10.925l-8.5-8.399c-2.3-2.3-6.1-2.3-8.5,0l-42.4,42.399L18.726,1.726c-2.301-2.301-6.101-2.301-8.5,0l-8.5,8.5 c-2.301,2.3-2.301,6.1,0,8.5l43.1,43.1l-42.3,42.5c-2.3,2.3-2.3,6.1,0,8.5l8.5,8.5c2.3,2.3,6.1,2.3,8.5,0l42.399-42.4l42.4,42.4 c2.3,2.3,6.1,2.3,8.5,0l8.5-8.5c2.3-2.3,2.3-6.1,0-8.5l-42.5-42.4l42.4-42.399C123.625,17.125,123.625,13.325,121.325,10.925z"/>
	</symbol>
	<symbol id="user" viewBox="-42 0 512 512.002">
		<title>user</title>
		<path d="m210.351562 246.632812c33.882813 0 63.222657-12.152343 87.195313-36.128906 23.972656-23.972656 36.125-53.304687 36.125-87.191406 0-33.875-12.152344-63.210938-36.128906-87.191406-23.976563-23.96875-53.3125-36.121094-87.191407-36.121094-33.886718 0-63.21875 12.152344-87.191406 36.125s-36.128906 53.308594-36.128906 87.1875c0 33.886719 12.15625 63.222656 36.132812 87.195312 23.976563 23.96875 53.3125 36.125 87.1875 36.125zm0 0"/>
		<path d="m426.128906 393.703125c-.691406-9.976563-2.089844-20.859375-4.148437-32.351563-2.078125-11.578124-4.753907-22.523437-7.957031-32.527343-3.308594-10.339844-7.808594-20.550781-13.371094-30.335938-5.773438-10.15625-12.554688-19-20.164063-26.277343-7.957031-7.613282-17.699219-13.734376-28.964843-18.199219-11.226563-4.441407-23.667969-6.691407-36.976563-6.691407-5.226563 0-10.28125 2.144532-20.042969 8.5-6.007812 3.917969-13.035156 8.449219-20.878906 13.460938-6.707031 4.273438-15.792969 8.277344-27.015625 11.902344-10.949219 3.542968-22.066406 5.339844-33.039063 5.339844-10.972656 0-22.085937-1.796876-33.046874-5.339844-11.210938-3.621094-20.296876-7.625-26.996094-11.898438-7.769532-4.964844-14.800782-9.496094-20.898438-13.46875-9.75-6.355468-14.808594-8.5-20.035156-8.5-13.3125 0-25.75 2.253906-36.972656 6.699219-11.257813 4.457031-21.003906 10.578125-28.96875 18.199219-7.605469 7.28125-14.390625 16.121094-20.15625 26.273437-5.558594 9.785157-10.058594 19.992188-13.371094 30.339844-3.199219 10.003906-5.875 20.945313-7.953125 32.523437-2.058594 11.476563-3.457031 22.363282-4.148437 32.363282-.679688 9.796875-1.023438 19.964844-1.023438 30.234375 0 26.726562 8.496094 48.363281 25.25 64.320312 16.546875 15.746094 38.441406 23.734375 65.066406 23.734375h246.53125c26.625 0 48.511719-7.984375 65.0625-23.734375 16.757813-15.945312 25.253906-37.585937 25.253906-64.324219-.003906-10.316406-.351562-20.492187-1.035156-30.242187zm0 0"/>
	</symbol>
	<symbol id="loupe" viewBox="0 0 512.005 512.005">
		<title>loupe</title>
		<path d="M505.749,475.587l-145.6-145.6c28.203-34.837,45.184-79.104,45.184-127.317c0-111.744-90.923-202.667-202.667-202.667 S0,90.925,0,202.669s90.923,202.667,202.667,202.667c48.213,0,92.48-16.981,127.317-45.184l145.6,145.6 c4.16,4.16,9.621,6.251,15.083,6.251s10.923-2.091,15.083-6.251C514.091,497.411,514.091,483.928,505.749,475.587z M202.667,362.669c-88.235,0-160-71.765-160-160s71.765-160,160-160s160,71.765,160,160S290.901,362.669,202.667,362.669z"/>
	</symbol>
	<symbol id="shopping-cart-of-checkered-design" viewBox="0 0 446.843 446.843">
		<title>shopping-cart-of-checkered-design</title>
		<path d="M444.09,93.103c-2.698-3.699-7.006-5.888-11.584-5.888H109.92c-0.625,0-1.249,0.038-1.85,0.119l-13.276-38.27 c-1.376-3.958-4.406-7.113-8.3-8.646L19.586,14.134c-7.374-2.887-15.695,0.735-18.591,8.1c-2.891,7.369,0.73,15.695,8.1,18.591 l60.768,23.872l74.381,214.399c-3.283,1.144-6.065,3.663-7.332,7.187l-21.506,59.739c-1.318,3.663-0.775,7.733,1.468,10.916 c2.24,3.183,5.883,5.078,9.773,5.078h11.044c-6.844,7.616-11.044,17.646-11.044,28.675c0,23.718,19.298,43.012,43.012,43.012 s43.012-19.294,43.012-43.012c0-11.029-4.2-21.059-11.044-28.675h93.776c-6.847,7.616-11.048,17.646-11.048,28.675 c0,23.718,19.294,43.012,43.013,43.012c23.718,0,43.012-19.294,43.012-43.012c0-11.029-4.2-21.059-11.043-28.675h13.433 c6.599,0,11.947-5.349,11.947-11.948c0-6.599-5.349-11.947-11.947-11.947H143.647l13.319-36.996 c1.72,0.724,3.578,1.152,5.523,1.152h210.278c6.234,0,11.751-4.027,13.65-9.959l59.739-186.387 C447.557,101.567,446.788,96.802,444.09,93.103z M169.659,409.807c-10.543,0-19.116-8.573-19.116-19.116 s8.573-19.117,19.116-19.117s19.116,8.574,19.116,19.117S180.202,409.807,169.659,409.807z M327.367,409.807 c-10.543,0-19.117-8.573-19.117-19.116s8.574-19.117,19.117-19.117c10.542,0,19.116,8.574,19.116,19.117 S337.909,409.807,327.367,409.807z M402.52,148.149h-73.161V115.89h83.499L402.52,148.149z M381.453,213.861h-52.094v-37.038 h63.967L381.453,213.861z M234.571,213.861v-37.038h66.113v37.038H234.571z M300.684,242.538v31.064h-66.113v-31.064H300.684z M139.115,176.823h66.784v37.038h-53.933L139.115,176.823z M234.571,148.149V115.89h66.113v32.259H234.571z M205.898,115.89v32.259 h-76.734l-11.191-32.259H205.898z M161.916,242.538h43.982v31.064h-33.206L161.916,242.538z M329.359,273.603v-31.064h42.909 l-9.955,31.064H329.359z"/>
	</symbol>
</svg>